Patient4_TMGait_0pt8_01_right_07_GRF.mot
version=1
nRows=72
nColumns=19
inDegrees=no
endheader
time	F1x	F1y	F1z	M1x	M1y	M1z	F2x	F2y	F2z	M2x	M2y	M2z	EC1x	EC1y	EC1z	EC2x	EC2y	EC2z
7.58	17.4379	715.084	64.2304	-270.6635	-62.012	749.7074	-12.6567	5.6718	11.2944	-1.1375	-3.6546	10.3949	-0.0592	0.0182	-0.0073	-0.0462	0.0165	0.9585
7.5915	15.9596	713.8685	65.1473	-269.7503	-62.645	747.9816	-8.669	4.6992	7.6743	-0.45166	-2.2944	8.101	-0.0592	0.0182	-0.0073	-0.0462	0.0165	0.9585
7.603	15.028	712.6422	65.8088	-268.7048	-62.8203	745.4401	-5.3469	3.9292	4.5456	0.16918	-1.1068	6.2326	-0.0592	0.0182	-0.0073	-0.0462	0.0165	0.9585
7.6145	14.7204	711.6931	66.1853	-267.6606	-62.5278	742.3918	-2.8383	3.4047	2.1189	0.67636	-0.17901	4.8817	-0.0592	0.0182	-0.0073	-0.0462	0.0165	0.9585
7.626	15.0417	711.2452	66.2879	-266.7433	-61.8055	739.1246	-1.1485	3.138	0.4142	1.0652	0.48517	4.0664	-0.0592	0.0182	-0.0073	-0.0462	0.0165	0.9585
7.6375	15.9414	711.405	66.143	-266.0371	-60.7127	735.8726	-0.14438	3.0745	-0.65995	1.3417	0.91661	3.6789	-0.0592	0.0182	-0.0073	-0.0462	0.0165	0.9585
7.649	17.3746	712.1334	65.8003	-265.5667	-59.3137	732.7022	0.31887	3.1498	-1.2529	1.5198	1.1824	3.6052	-0.0592	0.0182	-0.0073	-0.0462	0.0165	0.9585
7.6605	19.2577	713.2999	65.2843	-265.3067	-57.6542	729.6016	0.41202	3.2506	-1.5085	1.6024	1.3339	3.6563	-0.0592	0.0182	-0.0073	-0.0462	0.0165	0.9585
7.672	21.5377	714.7241	64.6633	-265.1966	-55.8064	726.4852	0.25615	3.2651	-1.5667	1.5851	1.4366	3.6567	-0.0592	0.0182	-0.0073	-0.0462	0.0165	0.9585
7.6835	24.1629	716.2604	63.9705	-265.1722	-53.8101	723.3065	-0.023367	3.0472	-1.5296	1.4464	1.5268	3.3913	-0.0592	0.0182	-0.0073	-0.0462	0.0165	0.9585
7.695	27.1298	717.8786	63.2965	-265.1994	-51.739	720.0987	-0.36011	2.466	-1.4883	1.1568	1.6537	2.6785	-0.0592	0.0182	-0.0073	-0.0462	0.0165	0.9585
7.7065	30.4528	719.7284	62.7114	-265.301	-49.6356	717.0612	-0.66142	1.383	-1.4846	0.677	1.816	1.3095	-0.0592	0.0182	-0.0073	-0.0462	0.0165	0.9585
7.718	34.1468	722.1326	62.3484	-265.5557	-47.5933	714.5273	-0.87164	-0.3017	-1.5413	-0.025745	2.0042	-0.84248	-0.0592	0.0182	-0.0073	-0.0462	0.0165	0.9585
7.7295	38.1806	725.5656	62.2975	-266.095	-45.6839	712.985	-0.8915	-2.6358	-1.6366	-0.96495	2.1504	-3.8537	-0.0592	0.0182	-0.0073	-0.0462	0.0165	0.9585
7.741	42.4809	730.4559	62.6552	-267.0427	-44.0071	712.8833	-0.63931	-5.5276	-1.7253	-2.1055	2.1601	-7.5977	-0.0592	0.0182	-0.0073	-0.0462	0.0165	0.9585
7.7525	46.9022	736.9995	63.4622	-268.4459	-42.6377	714.4414	0.0061313	-8.6827	-1.7184	-3.3311	1.8758	-11.6958	-0.0592	0.0182	-0.0073	-0.0462	0.0165	0.9585
7.764	51.2795	745.0013	64.7213	-270.2219	-41.6286	717.4795	1.1391	-11.4744	-1.4949	-4.3965	1.1054	-15.3365	-0.0592	0.0182	-0.0073	-0.0462	0.0165	0.9585
7.7755	55.4614	753.9437	66.3808	-272.186	-40.9861	721.5013	2.8598	-12.8854	-0.89948	-4.8936	-0.38034	-17.2121	-0.0592	0.0182	-0.0073	-0.0462	0.0165	0.9585
7.787	59.3891	763.1161	68.3207	-274.1064	-40.6351	725.813	5.1931	-11.3643	0.24798	-4.2054	-2.811	-15.3265	-0.0592	0.0182	-0.0073	-0.0462	0.0165	0.9585
7.7985	63.1192	771.6606	70.3656	-275.7268	-40.4228	729.5922	8.052	-4.8213	2.1169	-1.5024	-6.3538	-7.0035	-0.0592	0.0182	-0.0073	-0.0462	0.0165	0.9585
7.81	66.7987	778.5276	72.2734	-276.7422	-40.1088	731.8312	11.1092	9.3321	4.8423	4.2349	-11.0307	11.0759	-0.0592	0.0182	-0.0073	-0.0462	0.0165	0.9585
7.8215	70.5946	782.3467	73.7971	-276.7413	-39.4396	731.2462	13.7363	33.8926	8.4283	14.1018	-16.5735	42.5014	-0.0592	0.0182	-0.0073	-0.0462	0.0165	0.9585
7.833	74.6116	781.3402	74.7002	-275.1608	-38.1975	726.2099	14.8569	71.3365	12.6632	29.0543	-22.2579	90.4857	-0.0592	0.0182	-0.0073	-0.0462	0.0165	0.9585
7.8445	78.7489	773.3386	74.7446	-271.2916	-36.2274	714.7753	12.9031	122.9148	16.9651	49.546	-26.698	156.6915	-0.0592	0.0182	-0.0073	-0.0462	0.0165	0.9585
7.856	82.6683	756.0602	73.6647	-264.3753	-33.433	694.9712	5.9854	187.5696	20.319	75.0929	-27.8738	239.8535	-0.0592	0.0182	-0.0073	-0.0462	0.0165	0.9585
7.8675	85.7837	727.4734	71.1856	-253.7295	-29.799	665.1127	-6.7389	261.3281	21.4663	104.0287	-23.8419	334.9351	-0.0592	0.0182	-0.0073	-0.0462	0.0165	0.9585
7.879	87.3217	686.1996	67.0838	-238.8852	-25.4263	624.1594	-23.6151	337.2285	18.9145	133.505	-13.4045	432.9093	-0.0592	0.0182	-0.0073	-0.0462	0.0165	0.9585
7.8905	86.4869	631.8599	61.3222	-219.7028	-20.5837	571.9803	-41.3882	406.8945	11.8975	160.2149	2.9773	522.6299	-0.0592	0.0182	-0.0073	-0.0462	0.0165	0.9585
7.902	82.6282	565.4406	54.1057	-196.4919	-15.6903	509.6433	-57.2121	465.1383	1.3293	182.153	22.9329	596.9803	-0.0592	0.0182	-0.0073	-0.0462	0.0165	0.9585
7.9135	75.4488	489.4794	45.9036	-170.0795	-11.2519	439.5212	-69.7586	511.6221	-11.2142	199.2605	43.9012	655.249	-0.0592	0.0182	-0.0073	-0.0462	0.0165	0.9585
7.925	65.1718	407.9239	37.3573	-141.7756	-7.7178	365.1655	-78.7626	549.4641	-24.221	212.8398	63.8756	701.4244	-0.0592	0.0182	-0.0073	-0.0462	0.0165	0.9585
7.9365	52.6015	325.6576	29.1087	-113.2322	-5.3193	290.8623	-84.5646	582.3363	-36.1153	224.4511	81.0663	740.3215	-0.0592	0.0182	-0.0073	-0.0462	0.0165	0.9585
7.948	39.0714	247.7664	21.6544	-86.1927	-3.9721	221.0087	-87.5674	612.6838	-45.8974	235.1475	94.4134	775.2027	-0.0592	0.0182	-0.0073	-0.0462	0.0165	0.9585
7.9595	26.1551	178.5243	15.314	-62.1381	-3.3571	159.2248	-88.1761	641.2055	-53.1018	245.279	103.5373	807.1058	-0.0592	0.0182	-0.0073	-0.0462	0.0165	0.9585
7.971	15.1493	120.6248	10.2058	-42.008	-3.0888	107.7279	-86.8908	667.4862	-57.86	254.7057	108.8128	835.7009	-0.0592	0.0182	-0.0073	-0.0462	0.0165	0.9585
7.9825	6.7173	74.9734	6.3072	-26.1261	-2.8981	67.1985	-84.1787	690.5876	-60.6893	263.0444	111.068	860.0248	-0.0592	0.0182	-0.0073	-0.0462	0.0165	0.9585
7.994	0.9542	41.1447	3.4704	-14.3527	-2.6195	37.1895	-80.5741	709.4975	-62.1519	269.8743	111.2177	879.0565	-0.0592	0.0182	-0.0073	-0.0462	0.0165	0.9585
8.0055	-2.4135	17.8395	1.5071	-6.2412	-2.1952	16.5201	-76.5998	723.56	-62.8185	274.9048	110.1599	892.1505	-0.0592	0.0182	-0.0073	-0.0462	0.0165	0.9585
8.017	-3.8848	3.2467	0.24589	-1.1665	-1.6681	3.5696	-72.7362	732.6041	-63.0141	278.0468	108.4969	899.2216	-0.0592	0.0182	-0.0073	-0.0462	0.0165	0.9585
8.0285	-4.1252	-4.6188	-0.46318	1.5661	-1.1527	-3.4207	-69.267	737.0154	-62.9361	279.4419	106.5845	900.8098	-0.0592	0.0182	-0.0073	-0.0462	0.0165	0.9585
8.04	-3.6747	-7.7954	-0.75677	2.6649	-0.73341	-6.2607	-66.3044	737.7836	-62.5244	279.4672	104.4324	898.1055	-0.0592	0.0182	-0.0073	-0.0462	0.0165	0.9585
8.0515	-2.9273	-8.0091	-0.79841	2.7331	-0.41861	-6.4699	-63.8706	736.096	-61.7939	278.5774	102.0797	892.5139	-0.0592	0.0182	-0.0073	-0.0462	0.0165	0.9585
8.063	-2.1221	-6.6263	-0.68109	2.2474	-0.22318	-5.2754	-61.9281	733.1666	-60.831	277.224	99.6282	885.4555	-0.0592	0.0182	-0.0073	-0.0462	0.0165	0.9585
8.0745	-1.4011	-4.588	-0.50474	1.536	-0.11264	-3.5098	-60.4461	730.04	-59.8018	275.7851	97.263	878.1334	-0.0592	0.0182	-0.0073	-0.0462	0.0165	0.9585
8.086	-0.81594	-2.478	-0.30532	0.80266	-0.076529	-1.7041	-59.4109	727.5022	-58.8334	274.5442	95.1274	871.4466	-0.0592	0.0182	-0.0073	-0.0462	0.0165	0.9585
8.0975	-0.39211	-0.62686	-0.1286	0.15809	-0.081594	-0.13468	-58.7574	726.1775	-58.0065	273.713	93.2962	866.1039	-0.0592	0.0182	-0.0073	-0.0462	0.0165	0.9585
8.109	-0.10639	0.82652	0.018277	-0.34966	-0.11001	1.0917	-58.4381	726.4211	-57.3254	273.41	91.7569	862.4807	-0.0592	0.0182	-0.0073	-0.0462	0.0165	0.9585
8.1205	0.06226	1.8688	0.12271	-0.71455	-0.13806	1.9925	-58.3256	728.3738	-56.7716	273.6715	90.4443	860.6881	-0.0592	0.0182	-0.0073	-0.0462	0.0165	0.9585
8.132	0.15028	2.545	0.18888	-0.95098	-0.15588	2.5975	-58.2713	731.9115	-56.3517	274.437	89.3053	860.5199	-0.0592	0.0182	-0.0073	-0.0462	0.0165	0.9585
8.1435	0.18705	2.9528	0.2205	-1.0922	-0.15982	2.9955	-58.1178	736.6546	-56.0777	275.5561	88.2883	861.4741	-0.0592	0.0182	-0.0073	-0.0462	0.0165	0.9585
8.155	0.20151	3.1621	0.22589	-1.1649	-0.14733	3.2277	-57.6566	742.0721	-55.9632	276.8247	87.332	862.8903	-0.0592	0.0182	-0.0073	-0.0462	0.0165	0.9585
8.1665	0.20267	3.2637	0.20997	-1.199	-0.117	3.3754	-56.7189	747.5118	-55.9891	278.0067	86.3529	863.9816	-0.0592	0.0182	-0.0073	-0.0462	0.0165	0.9585
8.178	0.20868	3.3064	0.18443	-1.2129	-0.07482	3.4691	-55.1813	752.3199	-56.1231	278.8766	85.2757	863.9705	-0.0592	0.0182	-0.0073	-0.0462	0.0165	0.9585
8.1895	0.20525	3.3278	0.15318	-1.2206	-0.031409	3.5479	-52.9882	755.9217	-56.303	279.2527	84.0248	862.22	-0.0592	0.0182	-0.0073	-0.0462	0.0165	0.9585
8.201	0.19986	3.349	0.13113	-1.2311	-0.0025391	3.6129	-50.1487	757.867	-56.4471	279.0153	82.5259	858.2533	-0.0592	0.0182	-0.0073	-0.0462	0.0165	0.9585
8.2125	0.17989	3.3639	0.1151	-1.245	0.0087166	3.661	-46.6914	757.9483	-56.4592	278.1378	80.6976	851.8624	-0.0592	0.0182	-0.0073	-0.0462	0.0165	0.9585
8.224	0.1474	3.3647	0.12111	-1.2583	-0.017137	3.6767	-42.6536	756.2029	-56.2412	276.6831	78.4569	843.1273	-0.0592	0.0182	-0.0073	-0.0462	0.0165	0.9585
8.2355	0.079085	3.3229	0.14246	-1.2592	-0.080378	3.639	-38.0792	752.9369	-55.7348	274.7952	75.7535	832.4153	-0.0592	0.0182	-0.0073	-0.0462	0.0165	0.9585
8.247	-0.027668	3.1857	0.18736	-1.2261	-0.18858	3.4868	-32.9869	748.6933	-54.9124	272.6842	72.5553	820.3361	-0.0592	0.0182	-0.0073	-0.0462	0.0165	0.9585
8.2585	-0.19545	2.901	0.25578	-1.1316	-0.34936	3.1579	-27.3851	744.1018	-53.8424	270.5775	68.9146	807.6091	-0.0592	0.0182	-0.0073	-0.0462	0.0165	0.9585
8.27	-0.40156	2.3696	0.34949	-0.93519	-0.56336	2.5406	-21.2696	739.8387	-52.6482	268.7022	64.942	795.0073	-0.0592	0.0182	-0.0073	-0.0462	0.0165	0.9585
8.2815	-0.64024	1.5203	0.47615	-0.60425	-0.83714	1.5476	-14.6788	736.5305	-51.5256	267.2558	60.8372	783.2556	-0.0592	0.0182	-0.0073	-0.0462	0.0165	0.9585
8.293	-0.86884	0.26478	0.63024	-0.10401	-1.1442	0.061862	-7.7339	734.6332	-50.6826	266.3681	56.8454	772.915	-0.0592	0.0182	-0.0073	-0.0462	0.0165	0.9585
8.3045	-1.033	-1.4249	0.80071	0.57967	-1.4415	-1.9675	-0.62856	734.3679	-50.3032	266.0835	53.225	764.2961	-0.0592	0.0182	-0.0073	-0.0462	0.0165	0.9585
8.316	-1.0352	-3.4946	0.94535	1.4233	-1.6405	-4.4945	6.3358	735.728	-50.5016	266.3704	50.1994	757.5054	-0.0592	0.0182	-0.0073	-0.0462	0.0165	0.9585
8.3275	-0.74295	-5.7516	1.0149	2.3448	-1.6217	-7.283	12.8691	738.581	-51.3	267.1561	47.9038	752.5301	-0.0592	0.0182	-0.0073	-0.0462	0.0165	0.9585
8.339	0.035947	-7.7749	0.91319	3.1697	-1.1904	-9.8136	18.6752	742.6531	-52.6611	268.3255	46.41	749.2012	-0.0592	0.0182	-0.0073	-0.0462	0.0165	0.9585
8.3505	1.5101	-8.8385	0.52378	3.5977	-0.11126	-11.1799	23.5539	747.5515	-54.4438	269.7306	45.6689	747.1977	-0.0592	0.0182	-0.0073	-0.0462	0.0165	0.9585
8.362	3.9209	-7.8237	-0.31787	3.1695	1.9097	-10.0053	27.4469	752.7877	-56.48	271.1928	45.5552	746.0742	-0.0592	0.0182	-0.0073	-0.0462	0.0165	0.9585
8.3735	7.4323	-3.1762	-1.7646	1.2528	5.1289	-4.3693	30.4936	757.7227	-58.5753	272.4928	45.8418	745.1719	-0.0592	0.0182	-0.0073	-0.0462	0.0165	0.9585
8.385	12.0849	7.0458	-3.9629	-2.9382	9.7369	8.1167	32.9899	761.5739	-60.5693	273.3636	46.2733	743.6636	-0.0592	0.0182	-0.0073	-0.0462	0.0165	0.9585
8.3965	17.6368	24.9978	-6.9788	-10.2644	15.7105	30.1137	35.3166	763.3055	-62.289	273.4597	46.5504	740.4642	-0.0592	0.0182	-0.0073	-0.0462	0.0165	0.9585
